<?xml version="1.0" encoding="UTF-8" standalone="no"?>
<svg width="373px" height="387px" viewBox="0 0 373 387" version="1.1" xmlns="http://www.w3.org/2000/svg" xmlns:xlink="http://www.w3.org/1999/xlink">
    <!-- Generator: Sketch 39.1 (31720) - http://www.bohemiancoding.com/sketch -->
    <title>0</title>
    <desc>Created with Sketch.</desc>
    <defs></defs>
    <g id="Page-1" stroke="none" stroke-width="1" fill="none" fill-rule="evenodd">
        <g id="0" fill="#000000">
            <path d="M350.333258,241.249111 C345.291258,259.203111 338.431258,276.787111 329.532258,293.187111 C312.529258,324.525111 287.161258,350.165111 253.000258,362.002111 C220.621258,373.222111 184.893258,372.731111 152.448258,362.033111 C119.955258,351.318111 91.6942577,329.987111 69.5502577,304.221111 C63.3072577,296.957111 57.4912577,289.244111 52.1342577,281.191111 C60.3842577,273.554111 68.7372577,266.027111 77.0812577,258.495111 C97.8392577,239.756111 119.180258,221.638111 140.477258,203.516111 C183.083258,167.263111 226.231258,131.663111 270.088258,96.9311108 C280.559258,88.6391108 291.076258,80.4051108 301.621258,72.2081108 C313.059258,88.2121108 322.121258,105.776111 330.215258,123.664111 C338.477258,141.921111 346.975258,160.632111 352.171258,180.030111 C357.690258,200.640111 356.055258,220.871111 350.333258,241.249111 M16.8652577,148.715111 C20.0522577,130.809111 27.3882577,114.206111 37.7652577,99.3201108 C59.1232577,68.6831108 92.0702577,48.0541108 126.508258,34.9951108 C145.105258,27.9431108 164.438258,22.5101108 183.932258,18.5821108 C192.341258,16.8881108 200.919258,15.5291108 209.543258,14.7681108 C211.028258,15.9941108 212.962258,16.7491108 215.043258,16.9791108 C247.011258,20.5081108 274.258258,38.5771108 294.388258,62.8181108 C220.271258,120.552111 147.896258,180.520111 77.6422577,242.905111 C67.0422577,252.319111 56.3602577,261.647111 45.6922577,270.986111 C34.0782577,251.456111 25.2102577,230.204111 19.8872577,208.367111 C15.1632577,188.988111 13.3502577,168.461111 16.8652577,148.715111 M356.829258,143.129111 C348.722258,123.448111 340.391258,103.770111 329.975258,85.1771108 C325.473258,77.1401108 320.500258,69.2961108 315.051258,61.8091108 C325.257258,53.9361108 335.487258,46.0951108 345.760258,38.3091108 C351.838258,33.7011108 345.855258,23.2741108 339.703258,27.9471108 C329.029258,36.0561108 318.392258,44.2131108 307.787258,52.4121108 C298.644258,41.2761108 288.313258,31.1991108 276.711258,22.8521108 C281.099258,20.2941108 282.863258,13.5811108 277.075258,10.9451108 C237.333258,-7.14988916 192.510258,0.190110844 151.918258,11.4631108 C112.032258,22.5401108 72.7632577,40.1231108 43.2362577,69.8631108 C14.5752577,98.7311108 -1.74374228,136.732111 0.14825772,177.661111 C1.83125772,214.071111 15.0292577,250.010111 33.9892577,281.194111 C30.8352577,283.936111 27.6842577,286.682111 24.5332577,289.428111 C18.3082577,294.852111 11.5472577,299.785111 5.90725772,305.826111 C-0.34174228,312.520111 8.85925772,321.055111 15.7182577,315.637111 C24.6532577,308.580111 32.6642577,300.011111 40.8462577,291.907111 C40.9052577,291.995111 40.9632577,292.084111 41.0222577,292.172111 C62.0272577,323.262111 90.0472577,350.253111 123.766258,367.162111 C157.748258,384.203111 196.395258,390.172111 233.891258,383.680111 C272.381258,377.015111 305.509258,355.999111 328.885258,324.881111 C340.814258,309.000111 349.802258,291.198111 357.128258,272.790111 C365.213258,252.476111 371.882258,230.889111 372.543258,208.881111 C373.236258,185.825111 365.481258,164.131111 356.829258,143.129111" id="Fill-1"></path>
        </g>
    </g>
</svg>