<?xml version="1.0" encoding="UTF-8" standalone="no"?>
<svg width="56px" height="56px" viewBox="0 0 56 56" version="1.1" xmlns="http://www.w3.org/2000/svg" xmlns:xlink="http://www.w3.org/1999/xlink">
    <!-- Generator: Sketch 39.1 (31720) - http://www.bohemiancoding.com/sketch -->
    <title>link</title>
    <desc>Created with Sketch.</desc>
    <defs></defs>
    <g id="Page-1" stroke="none" stroke-width="1" fill="none" fill-rule="evenodd">
        <g id="link" transform="translate(28.000000, 28.000000) rotate(90.000000) translate(-28.000000, -28.000000) " fill="#FFFFFF" stroke="#000000">
            <g id="XMLID_2_">
                <path d="M49,40.9 C49,40 48.7,39.2 48.1,38.6 L41.1,31.6 C40.5,31 39.7,30.7 38.8,30.7 C37.9,30.7 37,31.1 36.4,31.8 C36.5,31.9 36.7,32.1 37,32.4 C37.4,32.7 37.6,33 37.7,33.1 C37.8,33.2 38,33.4 38.2,33.7 C38.4,34 38.6,34.3 38.6,34.6 C38.7,34.9 38.7,35.2 38.7,35.5 C38.7,36.4 38.4,37.2 37.8,37.8 C37.2,38.4 36.4,38.7 35.5,38.7 C35.2,38.7 34.9,38.7 34.6,38.6 C34.3,38.5 34,38.4 33.7,38.2 C33.4,38 33.2,37.8 33.1,37.7 C33,37.6 32.7,37.3 32.4,37 C32.1,36.6 31.8,36.4 31.8,36.4 C31.1,37.1 30.7,37.9 30.7,38.9 C30.7,39.8 31,40.6 31.6,41.2 L38.5,48.2 C39.1,48.8 39.9,49.1 40.8,49.1 C41.7,49.1 42.5,48.8 43.1,48.2 L48.1,43.3 C48.7,42.6 49,41.8 49,40.9 L49,40.9 Z M25.3,17.2 C25.3,16.3 25,15.5 24.4,14.9 L17.5,7.9 C16.9,7.3 16.1,7 15.2,7 C14.3,7 13.6,7.3 12.9,7.9 L7.9,12.8 C7.3,13.4 7,14.2 7,15.1 C7,16 7.3,16.8 7.9,17.4 L14.9,24.4 C15.5,25 16.3,25.3 17.2,25.3 C18.1,25.3 19,25 19.6,24.3 L19,23.7 C18.6,23.4 18.4,23.1 18.3,23 C18.2,22.9 18,22.7 17.8,22.4 C17.6,22.1 17.4,21.8 17.4,21.5 C17.3,21.2 17.3,20.9 17.3,20.6 C17.3,19.7 17.6,18.9 18.2,18.3 C18.8,17.7 19.6,17.4 20.5,17.4 C20.8,17.4 21.1,17.4 21.4,17.5 C21.7,17.6 22,17.7 22.3,17.9 C22.6,18.1 22.8,18.3 22.9,18.4 C23,18.5 23.3,18.8 23.6,19.1 C23.9,19.5 24.2,19.7 24.2,19.7 C25,18.9 25.3,18.1 25.3,17.2 L25.3,17.2 Z M55.5,40.9 C55.5,43.6 54.5,45.9 52.6,47.7 L47.6,52.6 C45.7,54.5 43.5,55.4 40.8,55.4 C38.1,55.4 35.8,54.4 33.9,52.5 L27,45.5 C25.1,43.6 24.2,41.4 24.2,38.7 C24.2,35.9 25.2,33.6 27.2,31.7 L24.2,28.7 C22.3,30.7 19.9,31.7 17.2,31.7 C14.5,31.7 12.2,30.8 10.3,28.9 L3.3,21.9 C1.4,20 0.5,17.7 0.5,15 C0.5,12.3 1.5,10 3.4,8.2 L8.4,3.3 C10.3,1.4 12.5,0.5 15.2,0.5 C17.9,0.5 20.2,1.5 22.1,3.4 L29,10.4 C30.9,12.3 31.8,14.5 31.8,17.2 C31.8,20 30.8,22.3 28.8,24.2 L31.8,27.2 C33.7,25.2 36.1,24.2 38.8,24.2 C41.5,24.2 43.8,25.1 45.7,27 L52.7,34 C54.6,36 55.5,38.2 55.5,40.9 L55.5,40.9 Z" id="XMLID_7_"></path>
            </g>
        </g>
    </g>
</svg>